<?xml version="1.0" encoding="utf-8"?>
<!-- Generator: Adobe Illustrator 24.2.1, SVG Export Plug-In . SVG Version: 6.00 Build 0)  -->
<svg version="1.1" xmlns="http://www.w3.org/2000/svg" xmlns:xlink="http://www.w3.org/1999/xlink" x="0px" y="0px"
	 viewBox="0 0 746.7 737.3" style="enable-background:new 0 0 746.7 737.3;" xml:space="preserve">
<style type="text/css">
	.st0{fill:#FFFFFF;enable-background:new    ;}
	.st1{fill:none;stroke:#72AD3E;stroke-width:35;stroke-linecap:round;stroke-miterlimit:10;enable-background:new    ;}
	.st2{enable-background:new    ;}
	.st3{fill:#72AD3E;}
	.st4{fill:#FFFFFF;}
	.st5{fill:#CE1736;}
</style>
<g id="Background_Kreis">
	<circle class="st0" cx="373.3" cy="368.7" r="364.1"/>
</g>
<g id="Kreis">
	<path class="st1" d="M251.1,372.8C232.7,344.3,222,310.4,222,274c0-100.6,81.5-182.1,182.1-182.1S586.2,173.5,586.2,274
		c0,23.3-4.4,45.6-12.4,66.1"/>
</g>
<g id="Hand">
	<g class="st2">
		<path class="st3" d="M606.3,373.1c-16.2-1.9-22.3,3.5-28.6,10.8c-58.5,67.6-44.3,82.4-137.2,82.2c-25.3,0-46.8,0.7-60.6-3.8
			c-8-2.6-5.2-14.7,3.2-13.5c24.6,3.5,63.8,6,93-6.5c8.2-3.5,13.5-11.5,13.9-20.4v0c0.5-11.1-6.9-20.9-17.7-23.6
			c-20.3-5.1-49.5-11.7-70-11c-62.6,2.4-144.2,32.1-184.5,78.7c-56.2,65-79.3,135.7-81.6,142.7c-1.6,4.8,1.4,9.8,6.4,9.7l154.9-2
			c3.1,0,5.7-2.1,6.6-5l20.1-69.5c0.8-2.9,3.4-4.9,6.4-5l173-7.4c24.6-1,47.1-13.9,60.6-34.4l58.9-90c8.7-13.3-0.3-31-16.2-31.8
			L606.3,373.1z"/>
	</g>
</g>
<g id="Prozessor">
	<g class="st2">
		<path d="M405.2,182l79.9,79.9l-80.2,80.2L325,262.2L405.2,182 M405.2,166.1c-0.6,0-1.3,0.2-1.7,0.7l-93.6,93.6c-1,1-1,2.5,0,3.5
			l93.4,93.4c0.5,0.5,1.1,0.7,1.7,0.7c0.6,0,1.3-0.2,1.7-0.7l93.6-93.6c1-1,1-2.5,0-3.5l-93.4-93.4
			C406.4,166.3,405.8,166.1,405.2,166.1L405.2,166.1z"/>
	</g>
	<path class="st2" d="M399.8,197.1l-59.5,59.5c-0.5,0.5-0.8,1.2-0.8,1.9v7.3c0,0.7,0.3,1.4,0.8,1.9l59.3,59.3
		c0.5,0.5,1.2,0.8,1.9,0.8h6.9c0.7,0,1.4-0.3,1.9-0.8l59.5-59.5c0.5-0.5,0.8-1.2,0.8-1.9v-7.3c0-0.7-0.3-1.4-0.8-1.9l-59.3-59.3
		c-0.5-0.5-1.2-0.8-1.9-0.8h-6.9C401,196.4,400.3,196.6,399.8,197.1z"/>
	<g>
		<g>
			<polygon points="372.8,151.6 366.8,157.6 386.9,177.7 392.9,171.8 372.8,151.6 			"/>
		</g>
		<g>
			<polygon points="360.7,163.7 354.8,169.6 374.9,189.7 380.9,183.8 360.7,163.7 			"/>
		</g>
		<g>
			<polygon points="348.7,175.7 342.7,181.6 362.9,201.8 368.8,195.8 348.7,175.7 			"/>
		</g>
		<g>
			<polygon points="336.7,187.7 330.7,193.7 350.9,213.8 356.8,207.9 336.7,187.7 			"/>
		</g>
		<g>
			<polygon points="324.6,199.7 318.7,205.7 338.8,225.8 344.8,219.9 324.6,199.7 			"/>
		</g>
		<g>
			<polygon points="312.6,211.8 306.7,217.7 326.8,237.9 332.8,231.9 312.6,211.8 			"/>
		</g>
		<g>
			<polygon points="300.6,223.8 294.6,229.7 314.8,249.9 320.7,243.9 300.6,223.8 			"/>
		</g>
	</g>
	<g>
		<g>
			<polygon points="509.5,223.8 489.4,243.9 495.3,249.9 515.5,229.7 509.5,223.8 			"/>
		</g>
		<g>
			<polygon points="497.5,211.8 477.4,231.9 483.3,237.9 503.4,217.7 497.5,211.8 			"/>
		</g>
		<g>
			<polygon points="485.5,199.7 465.3,219.9 471.3,225.8 491.4,205.7 485.5,199.7 			"/>
		</g>
		<g>
			<polygon points="473.4,187.7 453.3,207.9 459.3,213.8 479.4,193.7 473.4,187.7 			"/>
		</g>
		<g>
			<polygon points="461.4,175.7 441.3,195.8 447.2,201.8 467.4,181.6 461.4,175.7 			"/>
		</g>
		<g>
			<polygon points="449.4,163.7 429.2,183.8 435.2,189.7 455.3,169.6 449.4,163.7 			"/>
		</g>
		<g>
			<polygon points="437.4,151.6 417.2,171.8 423.2,177.7 443.3,157.6 437.4,151.6 			"/>
		</g>
	</g>
	<g>
		<g>
			<polygon points="422.6,345.8 416.7,351.8 436.8,371.9 442.8,366 422.6,345.8 			"/>
		</g>
		<g>
			<polygon points="434.6,333.8 428.7,339.7 448.8,359.9 454.8,353.9 434.6,333.8 			"/>
		</g>
		<g>
			<polygon points="446.7,321.8 440.7,327.7 460.9,347.9 466.8,341.9 446.7,321.8 			"/>
		</g>
		<g>
			<polygon points="458.7,309.7 452.7,315.7 472.9,335.8 478.8,329.9 458.7,309.7 			"/>
		</g>
		<g>
			<polygon points="470.7,297.7 464.8,303.7 484.9,323.8 490.9,317.9 470.7,297.7 			"/>
		</g>
		<g>
			<polygon points="482.8,285.7 476.8,291.6 496.9,311.8 502.9,305.8 482.8,285.7 			"/>
		</g>
		<g>
			<polygon points="494.8,273.7 488.8,279.6 509,299.7 514.9,293.8 494.8,273.7 			"/>
		</g>
	</g>
	<g>
		<g>
			<polygon points="314.8,273.7 294.6,293.8 300.6,299.7 320.7,279.6 314.8,273.7 			"/>
		</g>
		<g>
			<polygon points="326.8,285.7 306.7,305.8 312.6,311.8 332.8,291.6 326.8,285.7 			"/>
		</g>
		<g>
			<polygon points="338.8,297.7 318.7,317.9 324.6,323.8 344.8,303.7 338.8,297.7 			"/>
		</g>
		<g>
			<polygon points="350.9,309.7 330.7,329.9 336.7,335.8 356.8,315.7 350.9,309.7 			"/>
		</g>
		<g>
			<polygon points="362.9,321.8 342.7,341.9 348.7,347.9 368.8,327.7 362.9,321.8 			"/>
		</g>
		<g>
			<polygon points="374.9,333.8 354.8,353.9 360.7,359.9 380.9,339.7 374.9,333.8 			"/>
		</g>
		<g>
			<polygon points="386.9,345.8 366.8,366 372.8,371.9 392.9,351.8 386.9,345.8 			"/>
		</g>
	</g>
</g>
<g id="Thermometer">
	<g>
		<rect x="415.3" y="273.7" class="st4" width="12" height="4"/>
		<rect x="415.4" y="258.1" class="st4" width="12" height="4"/>
		<rect x="415.4" y="242.5" class="st4" width="12" height="4"/>
		<rect x="415.4" y="227" class="st4" width="12" height="4"/>
	</g>
	<g>
		<path class="st4" d="M403.1,218.1c2.6,0,4.7,2.1,4.7,4.7v59.1v2.3l1.9,1.3c3,2.2,4.7,5.5,4.7,9.1c0,6.2-5.1,11.3-11.3,11.3
			c-6.2,0-11.3-5.1-11.3-11.3c0-3.7,1.7-7,4.7-9.1l1.9-1.3v-2.3v-59.1C398.3,220.2,400.5,218.1,403.1,218.1 M403.1,213.6
			L403.1,213.6c-5.1,0-9.2,4.1-9.2,9.2v59.1c-4,2.9-6.6,7.5-6.6,12.8c0,8.7,7.1,15.8,15.8,15.8c8.7,0,15.8-7.1,15.8-15.8
			c0-5.3-2.6-9.9-6.6-12.8v-59.1C412.3,217.7,408.2,213.6,403.1,213.6L403.1,213.6z"/>
	</g>
	<path class="st5" d="M405.7,286.5v-35.9c0-1.5-1.2-2.6-2.6-2.6h0c-1.5,0-2.6,1.2-2.6,2.6v35.9c-3.4,1.1-5.9,4.3-5.9,8.2
		c0,4.7,3.8,8.6,8.6,8.6c4.7,0,8.6-3.8,8.6-8.6C411.7,290.9,409.2,287.6,405.7,286.5z"/>
</g>
</svg>
